<?xml version="1.0" encoding="iso-8859-1"?>
<!-- Generator: Adobe Illustrator 19.0.0, SVG Export Plug-In . SVG Version: 6.00 Build 0)  -->
<svg version="1.1" id="Capa_1" xmlns="http://www.w3.org/2000/svg" xmlns:xlink="http://www.w3.org/1999/xlink" x="0px" y="0px"
	 viewBox="0 0 512.579 512.579" style="enable-background:new 0 0 512.579 512.579;" xml:space="preserve">
<path style="fill:#FFFFFF;" d="M420,504.29H91.2c-45.6,0-83.2-37.6-83.2-83.2l0,0h496l0,0C504,466.69,466.4,504.29,420,504.29z"/>
<path style="fill:#193651;" d="M420,512.29H91.2c-50.4,0-91.2-40.8-91.2-91.2v-8h512v8C512,471.49,471.2,512.29,420,512.29z
	 M16,429.09c4,37.6,36,68,75.2,68H420c39.2,0,71.2-29.6,75.2-68H16z"/>
<rect x="40" y="111.49" style="fill:#FFFFFF;" width="432.8" height="309.6"/>
<path style="fill:#193651;" d="M480,429.09H32v-325.6h448V429.09z M48,413.09h416v-293.6H48V413.09z"/>
<rect x="80" y="151.49" style="fill:#27A2DE;" width="352.8" height="229.6"/>
<rect x="236.8" y="454.69" style="fill:#193651;" width="38.4" height="16"/>
<rect x="188" y="454.69" style="fill:#193651;" width="17.6" height="16"/>
<rect x="306.4" y="454.69" style="fill:#193651;" width="17.6" height="16"/>
<path style="fill:#F15F50;" d="M341.6,170.69c40,40,49.6,98.4,29.6,147.2c16-6.4,31.2-16.8,44-29.6c52.8-52.8,52.8-138.4,0-191.2
	s-138.4-52.8-191.2,0c-12.8,12.8-23.2,28-29.6,44C243.2,121.09,301.6,130.69,341.6,170.69z"/>
<g>
	<path style="fill:#FFFFFF;" d="M274.4,189.09c-36.8,20-60.8,60-58.4,107.2l0,0c47.2,2.4,87.2-21.6,107.2-58.4L274.4,189.09z"/>
	<path style="fill:#FFFFFF;" d="M342.4,257.09c104.8-28.8,172-125.6,160.8-248l0,0c-122.4-12-218.4,56-248,160.8L342.4,257.09z"/>
</g>
<path style="fill:#193651;" d="M340,266.69l-94.4-94.4l1.6-4.8C276,65.89,365.6,0.29,476,0.29c8.8,0,18.4,0.8,28,1.6l6.4,0.8
	l0.8,6.4c12,122.4-55.2,225.6-166.4,256L340,266.69z M264,167.49l80.8,80.8c98.4-29.6,158.4-121.6,150.4-231.2
	C385.6,9.09,293.6,69.89,264,167.49z"/>
<circle style="fill:#27A2DE;" cx="423.2" cy="89.09" r="32"/>
<g>
</g>
<g>
</g>
<g>
</g>
<g>
</g>
<g>
</g>
<g>
</g>
<g>
</g>
<g>
</g>
<g>
</g>
<g>
</g>
<g>
</g>
<g>
</g>
<g>
</g>
<g>
</g>
<g>
</g>
</svg>
